<?xml version="1.0" encoding="utf-8"?>
<!-- Generator: Adobe Illustrator 25.3.1, SVG Export Plug-In . SVG Version: 6.00 Build 0)  -->
<svg version="1.1" id="Camada_1" xmlns="http://www.w3.org/2000/svg" xmlns:xlink="http://www.w3.org/1999/xlink" x="0px" y="0px"
	 viewBox="0 0 300 100" style="enable-background:new 0 0 300 100;" xml:space="preserve">
<style type="text/css">
	.st0{fill:#FFF;}
</style>
<g>
	<g>
		<path class="st0" d="M4.2,69.6c-1.2-1.2-1.8-2.7-1.8-4.4c0-1.7,0.6-3.2,1.8-4.4c1.2-1.2,2.7-1.8,4.4-1.8c1.4,0,2.7,0.4,3.8,1.3
			c0.1,0.1,0.2,0.2,0.2,0.3c0,0.1,0,0.3-0.1,0.4c-0.1,0.1-0.2,0.2-0.3,0.2c-0.1,0-0.3,0-0.4-0.1c-0.9-0.7-2-1.1-3.2-1.1
			c-1.4,0-2.7,0.5-3.7,1.5c-1,1-1.5,2.3-1.5,3.7c0,1.4,0.5,2.7,1.5,3.7c1,1,2.2,1.5,3.7,1.5c1.4,0,2.5-0.5,3.5-1.4
			c0.1-0.1,0.2-0.1,0.4-0.1c0.1,0,0.3,0.1,0.4,0.2c0.1,0.1,0.1,0.2,0.1,0.4c0,0.1-0.1,0.3-0.2,0.4c-1.2,1.1-2.6,1.6-4.2,1.6
			C6.9,71.4,5.4,70.8,4.2,69.6z M12.2,71.2c-0.1-0.1-0.1-0.2-0.1-0.4v-5.5H7.7c-0.1,0-0.3,0-0.4-0.1c-0.1-0.1-0.2-0.2-0.2-0.4
			c0-0.1,0.1-0.3,0.2-0.4c0.1-0.1,0.2-0.2,0.4-0.2h4.9c0.1,0,0.3,0.1,0.4,0.2c0.1,0.1,0.1,0.2,0.1,0.4v6.1c0,0.1,0,0.3-0.1,0.4
			c-0.1,0.1-0.2,0.2-0.4,0.2C12.5,71.4,12.3,71.3,12.2,71.2z"/>
		<path class="st0" d="M20.4,71.4c-0.1,0-0.3-0.1-0.4-0.2c-0.1-0.1-0.2-0.2-0.2-0.4V59.4c0-0.1,0.1-0.3,0.2-0.4
			c0.1-0.1,0.2-0.2,0.4-0.2l6.9,0c0.1,0,0.3,0.1,0.4,0.2c0.1,0.1,0.2,0.2,0.2,0.4c0,0.1-0.1,0.3-0.2,0.4c-0.1,0.1-0.2,0.1-0.4,0.1
			l-6.4,0v4.7h4.8c0.1,0,0.3,0.1,0.4,0.2c0.1,0.1,0.2,0.2,0.2,0.4c0,0.1-0.1,0.3-0.2,0.4c-0.1,0.1-0.2,0.2-0.4,0.2H21v4.7h6.4
			c0.1,0,0.3,0.1,0.4,0.2c0.1,0.1,0.2,0.2,0.2,0.4c0,0.1-0.1,0.3-0.2,0.4c-0.1,0.1-0.2,0.2-0.4,0.2H20.4z"/>
		<path class="st0" d="M39.7,71.4c-1.7,0-3.2-0.6-4.4-1.8s-1.8-2.7-1.8-4.4c0-1.7,0.6-3.2,1.8-4.4s2.7-1.8,4.4-1.8s3.2,0.6,4.4,1.8
			s1.8,2.7,1.8,4.4c0,1.7-0.6,3.2-1.8,4.4S41.4,71.4,39.7,71.4z M39.7,59.9c-1.4,0-2.7,0.5-3.7,1.5c-1,1-1.5,2.3-1.5,3.7
			c0,1.4,0.5,2.7,1.5,3.7c1,1,2.3,1.5,3.7,1.5s2.7-0.5,3.7-1.5c1-1,1.5-2.2,1.5-3.7c0-1.4-0.5-2.7-1.5-3.7
			C42.4,60.4,41.1,59.9,39.7,59.9z"/>
		<path class="st0" d="M55.4,59.9H52c-0.1,0-0.3,0-0.4-0.1c-0.1-0.1-0.1-0.2-0.1-0.4c0-0.1,0-0.3,0.1-0.4c0.1-0.1,0.2-0.2,0.4-0.2
			h7.9c0.1,0,0.3,0.1,0.4,0.2c0.1,0.1,0.2,0.2,0.2,0.4c0,0.1-0.1,0.3-0.2,0.4c-0.1,0.1-0.2,0.1-0.4,0.1h-3.5v11c0,0.1,0,0.3-0.1,0.4
			c-0.1,0.1-0.2,0.1-0.4,0.1c-0.1,0-0.3,0-0.4-0.1c-0.1-0.1-0.1-0.2-0.1-0.4V59.9z"/>
		<path class="st0" d="M66.6,71.4c-0.1,0-0.3-0.1-0.4-0.2c-0.1-0.1-0.2-0.2-0.2-0.4V59.4c0-0.1,0.1-0.3,0.2-0.4
			c0.1-0.1,0.2-0.2,0.4-0.2l6.9,0c0.1,0,0.3,0.1,0.4,0.2c0.1,0.1,0.2,0.2,0.2,0.4c0,0.1-0.1,0.3-0.2,0.4c-0.1,0.1-0.2,0.1-0.4,0.1
			l-6.4,0v4.7H72c0.1,0,0.3,0.1,0.4,0.2c0.1,0.1,0.2,0.2,0.2,0.4c0,0.1-0.1,0.3-0.2,0.4c-0.1,0.1-0.2,0.2-0.4,0.2h-4.8v4.7h6.4
			c0.1,0,0.3,0.1,0.4,0.2c0.1,0.1,0.2,0.2,0.2,0.4c0,0.1-0.1,0.3-0.2,0.4c-0.1,0.1-0.2,0.2-0.4,0.2H66.6z"/>
		<path class="st0" d="M86,71.4c-1.7,0-3.2-0.6-4.4-1.8c-1.2-1.2-1.8-2.7-1.8-4.4c0-1.7,0.6-3.2,1.8-4.4c1.2-1.2,2.7-1.8,4.4-1.8
			c1.4,0,2.7,0.4,3.8,1.3c0.1,0.1,0.2,0.2,0.2,0.3c0,0.1,0,0.3-0.1,0.4c-0.1,0.1-0.2,0.2-0.3,0.2c-0.1,0-0.3,0-0.4-0.1
			c-0.9-0.7-2-1.1-3.2-1.1c-1.4,0-2.7,0.5-3.7,1.5c-1,1-1.5,2.3-1.5,3.7c0,1.4,0.5,2.7,1.5,3.7c1,1,2.3,1.5,3.7,1.5
			c1.4,0,2.5-0.5,3.5-1.4c0.1-0.1,0.2-0.1,0.4-0.1c0.1,0,0.3,0.1,0.4,0.2c0.1,0.1,0.1,0.2,0.1,0.4c0,0.1-0.1,0.3-0.2,0.4
			C89.1,70.9,87.6,71.4,86,71.4z"/>
		<path class="st0" d="M105.9,71.2L105.9,71.2L105.9,71.2l-8-10.3v10c0,0.1-0.1,0.3-0.2,0.4c-0.1,0.1-0.2,0.2-0.4,0.2
			c-0.1,0-0.3-0.1-0.4-0.2c-0.1-0.1-0.2-0.2-0.2-0.4V59.4c0-0.3,0.1-0.4,0.3-0.5c0.2-0.1,0.4,0,0.6,0.2l8,10.3v-10
			c0-0.1,0-0.3,0.1-0.4c0.1-0.1,0.2-0.2,0.4-0.2c0.1,0,0.3,0.1,0.4,0.2c0.1,0.1,0.1,0.2,0.1,0.4v11.5c0,0,0,0,0,0c0,0,0,0,0,0.1
			c0,0,0,0,0,0c0,0,0,0,0,0.1c0,0,0,0,0,0s0,0,0,0c0,0,0,0,0,0s0,0,0,0c0,0,0,0,0,0c0,0,0,0,0,0c0,0,0,0,0,0c0,0,0,0,0,0
			c0,0,0,0-0.1,0c0,0,0,0,0,0c0,0,0,0-0.1,0c0,0,0,0,0,0c0,0-0.1,0-0.1,0c0,0-0.1,0-0.1,0l0,0c0,0-0.1,0-0.1,0c0,0,0,0,0,0
			C106,71.3,106,71.3,105.9,71.2C105.9,71.3,105.9,71.3,105.9,71.2C105.9,71.2,105.9,71.2,105.9,71.2
			C105.9,71.2,105.9,71.2,105.9,71.2z"/>
		<path class="st0" d="M119.3,71.4c-1.7,0-3.2-0.6-4.4-1.8s-1.8-2.7-1.8-4.4c0-1.7,0.6-3.2,1.8-4.4s2.7-1.8,4.4-1.8
			c1.7,0,3.2,0.6,4.4,1.8s1.8,2.7,1.8,4.4c0,1.7-0.6,3.2-1.8,4.4S121,71.4,119.3,71.4z M119.3,59.9c-1.4,0-2.7,0.5-3.7,1.5
			c-1,1-1.5,2.3-1.5,3.7c0,1.4,0.5,2.7,1.5,3.7c1,1,2.3,1.5,3.7,1.5c1.4,0,2.7-0.5,3.7-1.5c1-1,1.5-2.2,1.5-3.7
			c0-1.4-0.5-2.7-1.5-3.7C122,60.4,120.7,59.9,119.3,59.9z"/>
		<path class="st0" d="M132.8,58.9c0.1,0,0.3,0.1,0.4,0.2c0.1,0.1,0.1,0.2,0.1,0.4v10.9h5.7c0.1,0,0.3,0,0.4,0.1
			c0.1,0.1,0.2,0.2,0.2,0.4c0,0.1-0.1,0.3-0.2,0.4c-0.1,0.1-0.2,0.1-0.4,0.1h-6.2c-0.1,0-0.3,0-0.4-0.1c-0.1-0.1-0.1-0.2-0.1-0.4
			V59.4c0-0.1,0-0.3,0.1-0.4C132.6,58.9,132.7,58.9,132.8,58.9z"/>
		<path class="st0" d="M150.9,71.4c-1.7,0-3.2-0.6-4.4-1.8c-1.2-1.2-1.8-2.7-1.8-4.4c0-1.7,0.6-3.2,1.8-4.4c1.2-1.2,2.7-1.8,4.4-1.8
			s3.2,0.6,4.4,1.8c1.2,1.2,1.8,2.7,1.8,4.4c0,1.7-0.6,3.2-1.8,4.4C154.1,70.8,152.7,71.4,150.9,71.4z M150.9,59.9
			c-1.4,0-2.7,0.5-3.7,1.5c-1,1-1.5,2.3-1.5,3.7c0,1.4,0.5,2.7,1.5,3.7c1,1,2.3,1.5,3.7,1.5s2.7-0.5,3.7-1.5c1-1,1.5-2.2,1.5-3.7
			c0-1.4-0.5-2.7-1.5-3.7C153.6,60.4,152.4,59.9,150.9,59.9z"/>
		<path class="st0" d="M165,69.6c-1.2-1.2-1.8-2.7-1.8-4.4c0-1.7,0.6-3.2,1.8-4.4c1.2-1.2,2.7-1.8,4.4-1.8c1.4,0,2.7,0.4,3.8,1.3
			c0.1,0.1,0.2,0.2,0.2,0.3c0,0.1,0,0.3-0.1,0.4c-0.1,0.1-0.2,0.2-0.3,0.2c-0.1,0-0.3,0-0.4-0.1c-0.9-0.7-2-1.1-3.2-1.1
			c-1.4,0-2.7,0.5-3.7,1.5c-1,1-1.5,2.3-1.5,3.7c0,1.4,0.5,2.7,1.5,3.7c1,1,2.3,1.5,3.7,1.5c1.4,0,2.5-0.5,3.5-1.4
			c0.1-0.1,0.2-0.1,0.4-0.1c0.1,0,0.3,0.1,0.4,0.2c0.1,0.1,0.1,0.2,0.1,0.4c0,0.1-0.1,0.3-0.2,0.4c-1.2,1.1-2.6,1.6-4.2,1.6
			C167.7,71.4,166.3,70.8,165,69.6z M173.1,71.2c-0.1-0.1-0.1-0.2-0.1-0.4v-5.5h-4.4c-0.1,0-0.3,0-0.4-0.1c-0.1-0.1-0.2-0.2-0.2-0.4
			c0-0.1,0.1-0.3,0.2-0.4c0.1-0.1,0.2-0.2,0.4-0.2h4.9c0.1,0,0.3,0.1,0.4,0.2c0.1,0.1,0.1,0.2,0.1,0.4v6.1c0,0.1,0,0.3-0.1,0.4
			c-0.1,0.1-0.2,0.2-0.4,0.2C173.3,71.4,173.2,71.3,173.1,71.2z"/>
		<path class="st0" d="M182,70.9c0,0.1-0.1,0.3-0.2,0.4c-0.1,0.1-0.2,0.2-0.4,0.2c-0.1,0-0.3-0.1-0.4-0.2c-0.1-0.1-0.2-0.2-0.2-0.4
			V59.4c0-0.1,0.1-0.3,0.2-0.4c0.1-0.1,0.2-0.2,0.4-0.2c0.1,0,0.3,0.1,0.4,0.2c0.1,0.1,0.2,0.2,0.2,0.4V70.9z"/>
		<path class="st0" d="M188.9,71.4c-0.1-0.1-0.2-0.1-0.3-0.3c-0.1-0.1-0.1-0.3,0-0.4l1.2-2.9v0l3.5-8.5c0,0,0-0.1,0-0.1l0,0
			c0,0,0,0,0,0c0,0,0,0,0,0c0,0,0,0,0,0c0.1,0,0.1-0.1,0.2-0.1h0c0,0,0.1,0,0.1,0c0,0,0,0,0.1,0c0,0,0,0,0,0c0.1,0,0.1,0,0.2,0.1
			l0,0c0,0,0,0,0,0c0,0,0,0,0,0c0,0,0,0,0,0c0,0,0,0.1,0,0.1l3.5,8.5v0l1.2,2.9c0.1,0.1,0.1,0.3,0,0.4c-0.1,0.1-0.1,0.2-0.3,0.3
			c-0.1,0-0.1,0-0.2,0c-0.2,0-0.4-0.1-0.5-0.3l-1.1-2.6h-6.4l-1.1,2.6c-0.1,0.2-0.2,0.3-0.5,0.3C189,71.4,189,71.4,188.9,71.4
			C189,71.4,188.9,71.4,188.9,71.4z M196.6,67.4l-2.8-6.7l-2.8,6.7H196.6z"/>
	</g>
	<g>
		<path class="st0" d="M20.4,53.7L8.8,42v11.7H2.3V29H5l11.7,11.6V29h6.5v24.6H20.4z"/>
		<path class="st0" d="M25.7,29h6.5v24.6h-6.5V29z"/>
		<path class="st0" d="M50.7,37.2c-1-1-2.5-1.6-4.1-1.6c-3.3,0-5.8,2.4-5.8,5.8s2.4,5.8,5.8,5.8c1.7,0,3.1-0.6,4.1-1.6l4.6,4.5
			c-2.2,2.2-5.3,3.6-8.7,3.6c-6.8,0-12.3-5.5-12.3-12.3S39.8,29,46.6,29c3.4,0,6.4,1.3,8.7,3.6L50.7,37.2z"/>
		<path class="st0" d="M58,29h15.3v5.4h-8.8v4h7.8v5.5h-7.8v4.5h8.8v5.3H58V29z"/>
		<path class="st0" d="M75.5,29h10.4c5,0,9.1,4.1,9.1,9.1c0,5-4,9-8.9,9h-4v6.5h-6.5V29z M82,41.5h4c2,0,3.5-1.5,3.5-3.5
			c0-2-1.6-3.5-3.5-3.5h-4V41.5z"/>
		<path class="st0" d="M96.1,29h6.5v18.1h8.9v6.5H96.1V29z"/>
		<path class="st0" d="M112.2,53.7L123.7,29h2.9l11.6,24.6h-6.5l-1.5-3.2h-10.1l-1.5,3.2H112.2z M122.6,45h5l-2.5-5.4L122.6,45z"/>
		<path class="st0" d="M157.3,53.7L145.6,42v11.7h-6.5V29h2.6l11.7,11.6V29h6.5v24.6H157.3z"/>
		<path class="st0" d="M162.6,29h15.3v5.4H169v4h7.8v5.5H169v4.5h8.8v5.3h-15.3V29z"/>
		<path class="st0" d="M179.7,29h19.4v6.4h-6.5v18.2h-6.5V35.4h-6.4V29z"/>
	</g>
	<g>
		<g>
			<path class="st0" d="M253.9,93.1c-23.7,0-43-19.3-43-43s19.3-43,43-43s43,19.3,43,43S277.6,93.1,253.9,93.1z M253.9,8.3
				c-23.1,0-41.8,18.8-41.8,41.8s18.8,41.8,41.8,41.8s41.8-18.8,41.8-41.8S277,8.3,253.9,8.3z"/>
		</g>
		<path class="st0" d="M288.9,45.6c-0.1-2.2-1.3-7.7-3.3-11.5c-1.6-3.3-3.6-6.2-6.1-8.9c-3.6-3.8-7.9-6.7-12.8-8.6
			c-0.9-0.4-1.8-0.6-2.8-0.5c-0.8,0.1-1,0.5-0.6,1.2c0.2,0.4,2.4,2.7,3.2,3.7c2.1,2.6,3.9,5.3,5.5,8.3c1.4,2.8,2.6,5.6,3.6,8.6
			c1,2.9,1.7,5.9,2.2,8.9c0.4,2.3,0.7,4.5,0.8,6.8c0.1,3.9-0.1,7.7-0.5,11.6c0,0.3,0,0.5-0.3,0.7c0-2-0.4-4-0.6-6
			c-0.2-1.2-0.3-1.9-0.6-3.7c-0.1-1.4-1.1-2.3-2.6-1.8C272,55,267,56.7,261.7,57c-3.2,0.3-6.5,0.5-9.7,0.4c-0.9,0-1.2,0.3-1.3,1.2
			c-0.3,4.3-0.1,8.5,0.4,12.7c0.1,1.2,0.5,1.5,1.8,1.6c1.8,0.1,3.6,0.1,5.4,0.2c0.2,0,0.4,0,0.6,0.2c-2,0.4-4,0.6-6,0.8
			c-1.3,0.1-1.4,0.3-1.4,1.5c0,0.2,0.1,0.4,0.1,0.6c0.1,0.7,0.2,1.5,0.3,2.2c-0.6-0.9-0.6-1.9-1-2.8c-0.4-1-0.8-1.4-1.8-1.3
			c-3.2,0.1-6.4-0.1-9.6-0.5c-3.2-0.4-6.4-0.9-9.5-2c-0.8-0.3-1.6-0.5-2.4-0.8c-0.2-0.1-0.4-0.1-0.6,0.1c-0.2,0.2-0.1,0.4,0,0.6
			c0.2,0.5,0.5,0.9,0.9,1.3c4.4,4.7,9.3,8.3,15.9,10.2c3.1,1,6.3,1.5,9.6,1.5c5.8,0,8.8-0.8,11.7-1.8c10.7-3.5,17.2-11.1,20.3-17.2
			C288.1,59.8,289.7,54.6,288.9,45.6z M252.2,53.7c2.7,0.1,5.3,0.2,8,0.3c3.9,0.1,7.7-0.1,11.5-0.7c0.7-0.1,1.4-0.2,2-0.5
			c1-0.3,1.4-1.4,1.1-2.8c-0.2-1.2-0.6-2.3-0.9-3.5c-1-3-2.3-5.9-3.7-8.7c-0.8-1.7-1.8-3.3-2.7-5c-1-1.7-7.2-10.1-11.4-12.5
			c-0.8-0.4-1.7-0.2-1.9,0.5c-0.2,0.8-0.3,1.5-0.4,2.3c-0.3,2.5-0.6,4.9-1,7.4c-0.2,1.5-0.4,3-0.6,4.5c-0.1,1,0.3,1.6,1.4,1.7
			c0.4,0,0.8,0.1,1.2,0.1c0.3,0,1.6,0,1.9,0c0.3,0,0.6,0,0.9,0c2.4,0,4.8-0.1,7.2-0.3c-0.9,0.6-2,0.9-3,1.2c-2.6,0.7-5.3,0.8-8,1
			c-1.4,0.1-1.9,0.4-2.1,2.1c-0.1,0.9-0.2,1.8-0.2,2.7c-0.2,2.9-0.4,5.8-0.6,8.7C250.8,53.2,251.2,53.7,252.2,53.7z M242.4,71.4
			c2.1,0.4,4.1,0.8,6.2,1.1c1,0.2,1.3-0.2,1.2-1.2c-0.4-2.2-1.7-10.4-1.9-11.6c-0.1-0.5-0.2-1-0.3-1.5c-0.2-0.8-0.8-1.1-1.5-1.1
			c-0.7,0-1.4-0.1-2.1-0.2c-3.5-0.4-6.9-0.9-10.3-1.8c-1.5-0.4-3-0.7-4.4-1.2c-1.3-0.4-1.7-0.3-1.7,1c-0.4,5.9-0.1,8.1,0,9
			c-0.2-0.2-0.3-0.3-0.3-0.5c-0.6-3.1-1-6.2-1.1-9.3c0-0.9-0.5-1.5-1.3-1.8c-1.8-0.8-3.5-1.6-5-2.8c-0.2-0.2-0.4-0.5-0.7-0.3
			c-0.3,0.2-0.4,0.5-0.4,0.8c0,0.2,0,0.4,0,0.6c0.1,2,0.2,4.1,0.6,6.1c0.6,2.8,1.8,5.2,4.1,7c3.2,2.5,6.9,4.1,10.7,5.4
			C236.9,70.1,239.7,70.8,242.4,71.4z M246.9,40c0-0.7-0.4-1.2-1-1.3c-1-0.2-2.1-0.3-3.2-0.4c-2.6-0.3-5.1-0.8-7.5-1.6
			c-1.1-0.3-1.7-0.1-2.2,0.9c-1.5,3.1-2.8,6.3-3.8,9.6c-0.3,1,0,1.7,1,2.1c1,0.4,2,0.8,3,1.1c2.3,0.7,4.6,1.3,6.9,1.7
			c1.8,0.3,3.7,0.7,5.5,0.9c1.2,0.2,1.5-0.3,1.5-1.4c0-2.8-0.2-8.4-0.2-8.4S246.9,41.1,246.9,40z M236.4,31.6c-0.7,1-0.5,1.6,0.7,2
			c2.7,1,5.5,1.8,8.4,2.2c0.7,0.1,1.4-0.2,1.5-1c0.2-1,0.3-2.1,0.4-3.1c0.2-2.4,0.6-4.9,1-7.3c0.2-1.3,0.4-2.6,0.7-3.7
			c0-0.8-0.2-1-0.9-0.8c-0.9,0.3-1.6,0.8-2.4,1.4C242.1,24.2,239,27.7,236.4,31.6z M224.7,46.7c1.2,0.7,1.9,0.4,2.3-0.9
			c0.6-1.9,1-3.9,1.6-5.7c0.4-1.4,1-2.7,1.4-4c0.3-0.8,0.1-1.1-0.6-1.5c-1.6-0.9-3.1-1.8-4.2-3.4c-0.4-0.6-0.8-0.6-1.2,0
			c-0.2,0.2-0.3,0.4-0.4,0.6c-1.3,2.2-2.4,4.5-3.2,7c-0.2,0.8-0.5,1.5-0.5,2.4c0,0.7,0.2,1.3,0.6,1.9
			C221.5,44.6,223,45.7,224.7,46.7z M231.5,30.4c0.4,0.3,1.3,0.3,1.8-0.7c1.2-1.9,3.4-5.8,10.2-11.6c0.7-0.5,2.3-1.5,2-2.2
			c-0.3-0.6-1.7-0.1-2.2,0.1c-7,2.4-11.6,6-14.4,8.9c-0.4,0.4-0.5,0.8-0.3,1.3C229.1,27.9,230.2,29.2,231.5,30.4z"/>
	</g>
</g>
</svg>
